<svg width="25" height="25" viewBox="0 0 25 25" fill="none" xmlns="http://www.w3.org/2000/svg">
<path d="M11.4486 17.2796C11.3174 17.2798 11.1873 17.2542 11.066 17.2041C10.9447 17.154 10.8345 17.0804 10.7416 16.9876L6.49963 12.7446C6.40406 12.6524 6.3278 12.5421 6.27531 12.4201C6.22282 12.2982 6.19514 12.167 6.19389 12.0342C6.19264 11.9014 6.21785 11.7697 6.26805 11.6468C6.31824 11.5238 6.39242 11.4121 6.48624 11.3182C6.58007 11.2242 6.69166 11.1499 6.81452 11.0995C6.93738 11.0492 7.06904 11.0238 7.20182 11.0248C7.3346 11.0259 7.46584 11.0534 7.58788 11.1057C7.70992 11.158 7.82032 11.2341 7.91263 11.3296L11.4476 14.8646L17.8126 8.50156C18.0001 8.31392 18.2545 8.20845 18.5198 8.20836C18.7851 8.20827 19.0395 8.31355 19.2271 8.50106C19.4148 8.68857 19.5202 8.94294 19.5203 9.20821C19.5204 9.47348 19.4151 9.72792 19.2276 9.91556L12.1556 16.9876C12.0628 17.0804 11.9526 17.154 11.8313 17.2041C11.7099 17.2542 11.5799 17.2798 11.4486 17.2796Z" fill="#2FAB73"/>
</svg>
