<svg width="25" height="24" viewBox="0 0 25 24" fill="none" xmlns="http://www.w3.org/2000/svg">
<path d="M12.1216 2C6.60758 2 2.12158 6.486 2.12158 12C2.12158 17.514 6.60758 22 12.1216 22C17.6356 22 22.1216 17.514 22.1216 12C22.1216 6.486 17.6356 2 12.1216 2ZM10.1226 16.413L7.11703 13.4139C6.72628 13.024 6.72549 12.3912 7.11527 12.0003C7.50529 11.6092 8.13859 11.6085 8.52951 11.9987L10.1206 13.587L14.7076 9C15.098 8.60953 15.7311 8.60953 16.1216 9C16.512 9.39047 16.512 10.0235 16.1216 10.414L10.1226 16.413Z" fill="#2FAB73"/>
</svg>
